<?xml version="1.0" encoding="UTF-8" standalone="no"?><!DOCTYPE svg PUBLIC "-//W3C//DTD SVG 1.1//EN" "http://www.w3.org/Graphics/SVG/1.1/DTD/svg11.dtd"><svg width="100%" height="100%" viewBox="0 0 72 72" version="1.1" xmlns="http://www.w3.org/2000/svg" xmlns:xlink="http://www.w3.org/1999/xlink" xml:space="preserve" xmlns:serif="http://www.serif.com/" style="fill-rule:evenodd;clip-rule:evenodd;stroke-linecap:round;stroke-linejoin:round;"><g id="color"><g><g><path d="M28.087,14.971l-3.888,-4.361l-4.174,0.328l-1.655,2.976c0,0 3.931,3.651 2.547,4.835c-13.365,11.435 -5.921,38.138 1.261,39.777c9.682,2.21 10.217,5.532 29.043,0.246l4.076,-4.073l1.429,-5.335l1.211,-9.226l0.31,-3.234l-0.378,-7.712l-2.985,-6.305l-3.881,-4.828c0,0 5.851,-3.805 -0.231,-7.201c-3.661,-2.044 -6.1,3.436 -6.1,3.436l-6.388,-0.507l-8.195,0.328l-4.809,2.048l2.808,-1.196Z" style="fill:#d6ad8a;fill-rule:nonzero;"/><path d="M28.665,38.509c-1.152,1.731 -2.367,8.038 -2.297,11.135c0.052,2.319 1.713,5.63 2.715,7.444c0.652,1.181 1.931,2.229 3.297,2.439c2.23,0.344 7.952,-0.125 10.085,-0.375c0.977,-0.115 2.287,-0.268 2.715,-1.126c0.873,-1.751 2.327,-5.567 2.521,-8.382c0.175,-2.534 -1.261,-10.509 -4.267,-12.698c-3.006,-2.189 -12.087,-2.469 -14.77,1.563Z" style="fill:#a8774e;fill-rule:nonzero;"/><path d="M49.368,17.771c1.072,1.026 1.833,1.276 4.167,-1.138c0,0 2.187,-1.914 -0.763,-4.186c-3.372,-2.596 -4.338,4.429 -3.403,5.324Z" style="fill:#a8774e;fill-rule:nonzero;"/><path d="M22.977,17.771c-1.072,1.026 -1.833,1.276 -4.167,-1.138c0,0 -2.187,-1.914 0.763,-4.186c3.372,-2.596 4.338,4.429 3.403,5.324Z" style="fill:#a8774e;fill-rule:nonzero;"/><path d="M27.623,14.337c0,0 -3.35,-6.498 -7.938,-2.812c-1.649,1.325 -2.911,3.958 1.603,6.915" style="fill:none;fill-rule:nonzero;stroke:#000;stroke-width:2px;"/><path d="M22.685,58.024c-11.962,-1.275 -12.838,-35.307 -0.509,-39.622" style="fill:none;fill-rule:nonzero;stroke:#000;stroke-width:2px;"/><path d="M49.315,58.024c11.962,-1.275 12.838,-35.307 0.509,-39.622" style="fill:none;fill-rule:nonzero;stroke:#000;stroke-width:2px;"/><path d="M44.762,14.337c0,0 3.35,-6.498 7.938,-2.812c1.649,1.325 2.911,3.958 -1.603,6.915" style="fill:none;fill-rule:nonzero;stroke:#000;stroke-width:2px;"/><path d="M25.279,15.393c0,0 8.71,-4.93 22.326,0" style="fill:none;fill-rule:nonzero;stroke:#000;stroke-width:2px;"/><g><path d="M32.787,43.167c0,0 0.75,0.583 3.75,0.917c3,0.333 4,-0.917 4,-0.917" style="fill:none;fill-rule:nonzero;stroke:#000;stroke-width:2px;"/><path d="M36.537,44.083l0.125,9.333c1.629,1.046 2.572,1.509 5.042,1" style="fill:none;fill-rule:nonzero;stroke:#000;stroke-width:2px;"/><path d="M31.787,54.417c1.958,0.333 2.917,0 4.875,-1" style="fill:none;fill-rule:nonzero;stroke:#000;stroke-width:2px;"/></g></g><path d="M39.787,31.542c1.958,-2.333 3.917,-2 4.875,0" style="fill:none;fill-rule:nonzero;stroke:#000;stroke-width:2px;"/><path d="M27.719,31.638c1.958,-2.333 3.917,-2 4.875,0" style="fill:none;fill-rule:nonzero;stroke:#000;stroke-width:2px;"/></g></g></svg>